<?xml version="1.0" encoding="UTF-8" standalone="no"?>
<!-- Created with Inkscape (http://www.inkscape.org/) -->

<svg
   xmlns:dc="http://purl.org/dc/elements/1.1/"
   xmlns:cc="http://creativecommons.org/ns#"
   xmlns:rdf="http://www.w3.org/1999/02/22-rdf-syntax-ns#"
   xmlns:svg="http://www.w3.org/2000/svg"
   xmlns="http://www.w3.org/2000/svg"
   xmlns:sodipodi="http://sodipodi.sourceforge.net/DTD/sodipodi-0.dtd"
   xmlns:inkscape="http://www.inkscape.org/namespaces/inkscape"
   width="210mm"
   height="297mm"
   viewBox="0 0 210 297"
   version="1.1"
   id="svg5461"
   inkscape:version="0.92.1 r15371"
   sodipodi:docname="Lichtgitter Wordclock groß horizontal.svg">
  <sodipodi:namedview
     id="base"
     pagecolor="#ffffff"
     bordercolor="#666666"
     borderopacity="1.0"
     inkscape:pageopacity="0.0"
     inkscape:pageshadow="2"
     inkscape:zoom="0.35"
     inkscape:cx="55.171238"
     inkscape:cy="348.35456"
     inkscape:document-units="mm"
     inkscape:current-layer="g6186"
     showgrid="false"
     showborder="false"
     inkscape:window-width="1680"
     inkscape:window-height="987"
     inkscape:window-x="-8"
     inkscape:window-y="-8"
     inkscape:window-maximized="1"
     showguides="false"
     inkscape:measure-start="-124.286,1118.57"
     inkscape:measure-end="-124.286,1038.57" />
  <defs
     id="defs5455" />
  <metadata
     id="metadata5458">
    <rdf:RDF>
      <cc:Work
         rdf:about="">
        <dc:format>image/svg+xml</dc:format>
        <dc:type
           rdf:resource="http://purl.org/dc/dcmitype/StillImage" />
        <dc:title></dc:title>
      </cc:Work>
    </rdf:RDF>
  </metadata>
  <g
     inkscape:label="Ebene 1"
     inkscape:groupmode="layer"
     id="layer1" />
  <g
     inkscape:label="HLED Long strips"
     inkscape:groupmode="layer"
     id="g6085" />
  <g
     inkscape:label="HLED Horizontal strips short"
     inkscape:groupmode="layer"
     id="g6107" />
  <g
     inkscape:label="HLED Vertical strips short"
     inkscape:groupmode="layer"
     id="g6131" />
  <g
     id="g6186"
     inkscape:groupmode="layer"
     inkscape:label="HLED Long strips">
    <g
       id="g6178"
       inkscape:label="group_horizontal_strip_long">
      <path
         id="path6174"
         inkscape:label="strip horizontal long"
         transform="rotate(90) translate(0.0,1)"
         style="stroke:#000000;stroke-width:0.01;fill:none"
         d="M 1,1 L 22.0,1 L 22.0,398.0 L 1,398.0 L 1,385.249995709 L 11.0,385.249995709 L 11.0,379.049995899 L 1,379.049995899 L 1,351.949996472 L 11.0,351.949996472 L 11.0,345.749996662 L 1,345.749996662 L 1,318.649997234 L 11.0,318.649997234 L 11.0,312.449997425 L 1,312.449997425 L 1,285.349997997 L 11.0,285.349997997 L 11.0,279.149998188 L 1,279.149998188 L 1,252.04999876 L 11.0,252.04999876 L 11.0,245.849998951 L 1,245.849998951 L 1,218.749999523 L 11.0,218.749999523 L 11.0,212.549999714 L 1,212.549999714 L 1,185.450000286 L 11.0,185.450000286 L 11.0,179.250000477 L 1,179.250000477 L 1,152.150001049 L 11.0,152.150001049 L 11.0,145.95000124 L 1,145.95000124 L 1,118.850001812 L 11.0,118.850001812 L 11.0,112.650002003 L 1,112.650002003 L 1,85.5500025748 L 11.0,85.5500025748 L 11.0,79.3500027655 L 1,79.3500027655 L 1,52.2500033377 L 11.0,52.2500033377 L 11.0,46.0500035284 L 1,46.0500035284 L 1,18.9500041006 L 11.0,18.9500041006 L 11.0,12.7500042913 L 1,12.7500042913 L 1,1 z" />
      <path
         id="path6176"
         inkscape:label="strip horizontal long"
         transform="rotate(90) translate(22.0,1)"
         style="stroke:#000000;stroke-width:0.01;fill:none"
         d="M 1,1 L 22.0,1 L 22.0,398.0 L 1,398.0 L 1,385.249995709 L 11.0,385.249995709 L 11.0,379.049995899 L 1,379.049995899 L 1,351.949996472 L 11.0,351.949996472 L 11.0,345.749996662 L 1,345.749996662 L 1,318.649997234 L 11.0,318.649997234 L 11.0,312.449997425 L 1,312.449997425 L 1,285.349997997 L 11.0,285.349997997 L 11.0,279.149998188 L 1,279.149998188 L 1,252.04999876 L 11.0,252.04999876 L 11.0,245.849998951 L 1,245.849998951 L 1,218.749999523 L 11.0,218.749999523 L 11.0,212.549999714 L 1,212.549999714 L 1,185.450000286 L 11.0,185.450000286 L 11.0,179.250000477 L 1,179.250000477 L 1,152.150001049 L 11.0,152.150001049 L 11.0,145.95000124 L 1,145.95000124 L 1,118.850001812 L 11.0,118.850001812 L 11.0,112.650002003 L 1,112.650002003 L 1,85.5500025748 L 11.0,85.5500025748 L 11.0,79.3500027655 L 1,79.3500027655 L 1,52.2500033377 L 11.0,52.2500033377 L 11.0,46.0500035284 L 1,46.0500035284 L 1,18.9500041006 L 11.0,18.9500041006 L 11.0,12.7500042913 L 1,12.7500042913 L 1,1 z" />
    </g>
  </g>
  <g
     id="g6208"
     inkscape:groupmode="layer"
     inkscape:label="HLED Horizontal strips short">
    <g
       id="g6206"
       inkscape:label="group horizontal_strip_short">
      <path
         id="path6188"
         inkscape:label="strip horizontal short1"
         transform="rotate(90) translate(46.0,1)"
         style="stroke:#000000;stroke-width:0.01;fill:none"
         d="M 1,1 L 22.0,1 L 22.0,391.099990845 L 1,391.099990845 L 1,381.799991131 L 11.0,381.799991131 L 11.0,375.599991322 L 1,375.599991322 L 1,348.499991894 L 11.0,348.499991894 L 11.0,342.299992085 L 1,342.299992085 L 1,315.199992657 L 11.0,315.199992657 L 11.0,308.999992848 L 1,308.999992848 L 1,281.89999342 L 11.0,281.89999342 L 11.0,275.699993611 L 1,275.699993611 L 1,248.599994183 L 11.0,248.599994183 L 11.0,242.399994374 L 1,242.399994374 L 1,215.299994946 L 11.0,215.299994946 L 11.0,209.099995137 L 1,209.099995137 L 1,181.999995709 L 11.0,181.999995709 L 11.0,175.799995899 L 1,175.799995899 L 1,148.699996472 L 11.0,148.699996472 L 11.0,142.499996662 L 1,142.499996662 L 1,115.399997234 L 11.0,115.399997234 L 11.0,109.199997425 L 1,109.199997425 L 1,82.0999979974 L 11.0,82.0999979974 L 11.0,75.8999981881 L 1,75.8999981881 L 1,48.7999987603 L 11.0,48.7999987603 L 11.0,42.599998951 L 1,42.599998951 L 1,15.4999995232 L 11.0,15.4999995232 L 11.0,9.29999971391 L 1,9.29999971391 L 1,1 z" />
      <path
         id="path6190"
         inkscape:label="strip horizontal short2"
         transform="rotate(90) translate(68.0,1)"
         style="stroke:#000000;stroke-width:0.01;fill:none"
         d="M 1,1 L 22.0,1 L 22.0,391.099990845 L 1,391.099990845 L 1,381.799991131 L 11.0,381.799991131 L 11.0,375.599991322 L 1,375.599991322 L 1,348.499991894 L 11.0,348.499991894 L 11.0,342.299992085 L 1,342.299992085 L 1,315.199992657 L 11.0,315.199992657 L 11.0,308.999992848 L 1,308.999992848 L 1,281.89999342 L 11.0,281.89999342 L 11.0,275.699993611 L 1,275.699993611 L 1,248.599994183 L 11.0,248.599994183 L 11.0,242.399994374 L 1,242.399994374 L 1,215.299994946 L 11.0,215.299994946 L 11.0,209.099995137 L 1,209.099995137 L 1,181.999995709 L 11.0,181.999995709 L 11.0,175.799995899 L 1,175.799995899 L 1,148.699996472 L 11.0,148.699996472 L 11.0,142.499996662 L 1,142.499996662 L 1,115.399997234 L 11.0,115.399997234 L 11.0,109.199997425 L 1,109.199997425 L 1,82.0999979974 L 11.0,82.0999979974 L 11.0,75.8999981881 L 1,75.8999981881 L 1,48.7999987603 L 11.0,48.7999987603 L 11.0,42.599998951 L 1,42.599998951 L 1,15.4999995232 L 11.0,15.4999995232 L 11.0,9.29999971391 L 1,9.29999971391 L 1,1 z" />
      <path
         id="path6192"
         inkscape:label="strip horizontal short3"
         transform="rotate(90) translate(90.0,1)"
         style="stroke:#000000;stroke-width:0.01;fill:none"
         d="M 1,1 L 22.0,1 L 22.0,391.099990845 L 1,391.099990845 L 1,381.799991131 L 11.0,381.799991131 L 11.0,375.599991322 L 1,375.599991322 L 1,348.499991894 L 11.0,348.499991894 L 11.0,342.299992085 L 1,342.299992085 L 1,315.199992657 L 11.0,315.199992657 L 11.0,308.999992848 L 1,308.999992848 L 1,281.89999342 L 11.0,281.89999342 L 11.0,275.699993611 L 1,275.699993611 L 1,248.599994183 L 11.0,248.599994183 L 11.0,242.399994374 L 1,242.399994374 L 1,215.299994946 L 11.0,215.299994946 L 11.0,209.099995137 L 1,209.099995137 L 1,181.999995709 L 11.0,181.999995709 L 11.0,175.799995899 L 1,175.799995899 L 1,148.699996472 L 11.0,148.699996472 L 11.0,142.499996662 L 1,142.499996662 L 1,115.399997234 L 11.0,115.399997234 L 11.0,109.199997425 L 1,109.199997425 L 1,82.0999979974 L 11.0,82.0999979974 L 11.0,75.8999981881 L 1,75.8999981881 L 1,48.7999987603 L 11.0,48.7999987603 L 11.0,42.599998951 L 1,42.599998951 L 1,15.4999995232 L 11.0,15.4999995232 L 11.0,9.29999971391 L 1,9.29999971391 L 1,1 z" />
      <path
         id="path6194"
         inkscape:label="strip horizontal short4"
         transform="rotate(90) translate(112.0,1)"
         style="stroke:#000000;stroke-width:0.01;fill:none"
         d="M 1,1 L 22.0,1 L 22.0,391.099990845 L 1,391.099990845 L 1,381.799991131 L 11.0,381.799991131 L 11.0,375.599991322 L 1,375.599991322 L 1,348.499991894 L 11.0,348.499991894 L 11.0,342.299992085 L 1,342.299992085 L 1,315.199992657 L 11.0,315.199992657 L 11.0,308.999992848 L 1,308.999992848 L 1,281.89999342 L 11.0,281.89999342 L 11.0,275.699993611 L 1,275.699993611 L 1,248.599994183 L 11.0,248.599994183 L 11.0,242.399994374 L 1,242.399994374 L 1,215.299994946 L 11.0,215.299994946 L 11.0,209.099995137 L 1,209.099995137 L 1,181.999995709 L 11.0,181.999995709 L 11.0,175.799995899 L 1,175.799995899 L 1,148.699996472 L 11.0,148.699996472 L 11.0,142.499996662 L 1,142.499996662 L 1,115.399997234 L 11.0,115.399997234 L 11.0,109.199997425 L 1,109.199997425 L 1,82.0999979974 L 11.0,82.0999979974 L 11.0,75.8999981881 L 1,75.8999981881 L 1,48.7999987603 L 11.0,48.7999987603 L 11.0,42.599998951 L 1,42.599998951 L 1,15.4999995232 L 11.0,15.4999995232 L 11.0,9.29999971391 L 1,9.29999971391 L 1,1 z" />
      <path
         id="path6196"
         inkscape:label="strip horizontal short5"
         transform="rotate(90) translate(134.0,1)"
         style="stroke:#000000;stroke-width:0.01;fill:none"
         d="M 1,1 L 22.0,1 L 22.0,391.099990845 L 1,391.099990845 L 1,381.799991131 L 11.0,381.799991131 L 11.0,375.599991322 L 1,375.599991322 L 1,348.499991894 L 11.0,348.499991894 L 11.0,342.299992085 L 1,342.299992085 L 1,315.199992657 L 11.0,315.199992657 L 11.0,308.999992848 L 1,308.999992848 L 1,281.89999342 L 11.0,281.89999342 L 11.0,275.699993611 L 1,275.699993611 L 1,248.599994183 L 11.0,248.599994183 L 11.0,242.399994374 L 1,242.399994374 L 1,215.299994946 L 11.0,215.299994946 L 11.0,209.099995137 L 1,209.099995137 L 1,181.999995709 L 11.0,181.999995709 L 11.0,175.799995899 L 1,175.799995899 L 1,148.699996472 L 11.0,148.699996472 L 11.0,142.499996662 L 1,142.499996662 L 1,115.399997234 L 11.0,115.399997234 L 11.0,109.199997425 L 1,109.199997425 L 1,82.0999979974 L 11.0,82.0999979974 L 11.0,75.8999981881 L 1,75.8999981881 L 1,48.7999987603 L 11.0,48.7999987603 L 11.0,42.599998951 L 1,42.599998951 L 1,15.4999995232 L 11.0,15.4999995232 L 11.0,9.29999971391 L 1,9.29999971391 L 1,1 z" />
      <path
         id="path6198"
         inkscape:label="strip horizontal short6"
         transform="rotate(90) translate(156.0,1)"
         style="stroke:#000000;stroke-width:0.01;fill:none"
         d="M 1,1 L 22.0,1 L 22.0,391.099990845 L 1,391.099990845 L 1,381.799991131 L 11.0,381.799991131 L 11.0,375.599991322 L 1,375.599991322 L 1,348.499991894 L 11.0,348.499991894 L 11.0,342.299992085 L 1,342.299992085 L 1,315.199992657 L 11.0,315.199992657 L 11.0,308.999992848 L 1,308.999992848 L 1,281.89999342 L 11.0,281.89999342 L 11.0,275.699993611 L 1,275.699993611 L 1,248.599994183 L 11.0,248.599994183 L 11.0,242.399994374 L 1,242.399994374 L 1,215.299994946 L 11.0,215.299994946 L 11.0,209.099995137 L 1,209.099995137 L 1,181.999995709 L 11.0,181.999995709 L 11.0,175.799995899 L 1,175.799995899 L 1,148.699996472 L 11.0,148.699996472 L 11.0,142.499996662 L 1,142.499996662 L 1,115.399997234 L 11.0,115.399997234 L 11.0,109.199997425 L 1,109.199997425 L 1,82.0999979974 L 11.0,82.0999979974 L 11.0,75.8999981881 L 1,75.8999981881 L 1,48.7999987603 L 11.0,48.7999987603 L 11.0,42.599998951 L 1,42.599998951 L 1,15.4999995232 L 11.0,15.4999995232 L 11.0,9.29999971391 L 1,9.29999971391 L 1,1 z" />
      <path
         id="path6200"
         inkscape:label="strip horizontal short7"
         transform="rotate(90) translate(178.0,1)"
         style="stroke:#000000;stroke-width:0.01;fill:none"
         d="M 1,1 L 22.0,1 L 22.0,391.099990845 L 1,391.099990845 L 1,381.799991131 L 11.0,381.799991131 L 11.0,375.599991322 L 1,375.599991322 L 1,348.499991894 L 11.0,348.499991894 L 11.0,342.299992085 L 1,342.299992085 L 1,315.199992657 L 11.0,315.199992657 L 11.0,308.999992848 L 1,308.999992848 L 1,281.89999342 L 11.0,281.89999342 L 11.0,275.699993611 L 1,275.699993611 L 1,248.599994183 L 11.0,248.599994183 L 11.0,242.399994374 L 1,242.399994374 L 1,215.299994946 L 11.0,215.299994946 L 11.0,209.099995137 L 1,209.099995137 L 1,181.999995709 L 11.0,181.999995709 L 11.0,175.799995899 L 1,175.799995899 L 1,148.699996472 L 11.0,148.699996472 L 11.0,142.499996662 L 1,142.499996662 L 1,115.399997234 L 11.0,115.399997234 L 11.0,109.199997425 L 1,109.199997425 L 1,82.0999979974 L 11.0,82.0999979974 L 11.0,75.8999981881 L 1,75.8999981881 L 1,48.7999987603 L 11.0,48.7999987603 L 11.0,42.599998951 L 1,42.599998951 L 1,15.4999995232 L 11.0,15.4999995232 L 11.0,9.29999971391 L 1,9.29999971391 L 1,1 z" />
      <path
         id="path6202"
         inkscape:label="strip horizontal short8"
         transform="rotate(90) translate(200.0,1)"
         style="stroke:#000000;stroke-width:0.01;fill:none"
         d="M 1,1 L 22.0,1 L 22.0,391.099990845 L 1,391.099990845 L 1,381.799991131 L 11.0,381.799991131 L 11.0,375.599991322 L 1,375.599991322 L 1,348.499991894 L 11.0,348.499991894 L 11.0,342.299992085 L 1,342.299992085 L 1,315.199992657 L 11.0,315.199992657 L 11.0,308.999992848 L 1,308.999992848 L 1,281.89999342 L 11.0,281.89999342 L 11.0,275.699993611 L 1,275.699993611 L 1,248.599994183 L 11.0,248.599994183 L 11.0,242.399994374 L 1,242.399994374 L 1,215.299994946 L 11.0,215.299994946 L 11.0,209.099995137 L 1,209.099995137 L 1,181.999995709 L 11.0,181.999995709 L 11.0,175.799995899 L 1,175.799995899 L 1,148.699996472 L 11.0,148.699996472 L 11.0,142.499996662 L 1,142.499996662 L 1,115.399997234 L 11.0,115.399997234 L 11.0,109.199997425 L 1,109.199997425 L 1,82.0999979974 L 11.0,82.0999979974 L 11.0,75.8999981881 L 1,75.8999981881 L 1,48.7999987603 L 11.0,48.7999987603 L 11.0,42.599998951 L 1,42.599998951 L 1,15.4999995232 L 11.0,15.4999995232 L 11.0,9.29999971391 L 1,9.29999971391 L 1,1 z" />
      <path
         id="path6204"
         inkscape:label="strip horizontal short9"
         transform="rotate(90) translate(222.0,1)"
         style="stroke:#000000;stroke-width:0.01;fill:none"
         d="M 1,1 L 22.0,1 L 22.0,391.099990845 L 1,391.099990845 L 1,381.799991131 L 11.0,381.799991131 L 11.0,375.599991322 L 1,375.599991322 L 1,348.499991894 L 11.0,348.499991894 L 11.0,342.299992085 L 1,342.299992085 L 1,315.199992657 L 11.0,315.199992657 L 11.0,308.999992848 L 1,308.999992848 L 1,281.89999342 L 11.0,281.89999342 L 11.0,275.699993611 L 1,275.699993611 L 1,248.599994183 L 11.0,248.599994183 L 11.0,242.399994374 L 1,242.399994374 L 1,215.299994946 L 11.0,215.299994946 L 11.0,209.099995137 L 1,209.099995137 L 1,181.999995709 L 11.0,181.999995709 L 11.0,175.799995899 L 1,175.799995899 L 1,148.699996472 L 11.0,148.699996472 L 11.0,142.499996662 L 1,142.499996662 L 1,115.399997234 L 11.0,115.399997234 L 11.0,109.199997425 L 1,109.199997425 L 1,82.0999979974 L 11.0,82.0999979974 L 11.0,75.8999981881 L 1,75.8999981881 L 1,48.7999987603 L 11.0,48.7999987603 L 11.0,42.599998951 L 1,42.599998951 L 1,15.4999995232 L 11.0,15.4999995232 L 11.0,9.29999971391 L 1,9.29999971391 L 1,1 z" />
    </g>
  </g>
  <g
     id="g6232"
     inkscape:groupmode="layer"
     inkscape:label="HLED Vertical strips short" />
</svg>
