<?xml version="1.0" encoding="UTF-8" standalone="no"?>
<svg
   xmlns:dc="http://purl.org/dc/elements/1.1/"
   xmlns:cc="http://creativecommons.org/ns#"
   xmlns:rdf="http://www.w3.org/1999/02/22-rdf-syntax-ns#"
   xmlns:svg="http://www.w3.org/2000/svg"
   xmlns="http://www.w3.org/2000/svg"
   xmlns:sodipodi="http://sodipodi.sourceforge.net/DTD/sodipodi-0.dtd"
   xmlns:inkscape="http://www.inkscape.org/namespaces/inkscape"
   version="1.1"
   id="svg2338"
   xml:space="preserve"
   viewBox="0 0 1116.852 1116.85"
   height="1116.85pt"
   width="1116.852pt"
   sodipodi:docname="Wordclock groß Awery NICHT Formulor Innenraum weniger.svg"
   inkscape:version="0.92.1 r15371"><sodipodi:namedview
     pagecolor="#ffffff"
     bordercolor="#666666"
     borderopacity="1"
     objecttolerance="10"
     gridtolerance="10"
     guidetolerance="10"
     inkscape:pageopacity="0"
     inkscape:pageshadow="2"
     inkscape:window-width="1680"
     inkscape:window-height="987"
     id="namedview5707"
     showgrid="false"
     showborder="false"
     inkscape:zoom="0.54931281"
     inkscape:cx="714.8923"
     inkscape:cy="905.34732"
     inkscape:window-x="-8"
     inkscape:window-y="-8"
     inkscape:window-maximized="1"
     inkscape:current-layer="g6183"
     inkscape:measure-start="1751.28,1439.98"
     inkscape:measure-end="1521.9,1492.77" /><metadata
     id="metadata2382"><rdf:RDF><cc:Work
         rdf:about=""><dc:format>image/svg+xml</dc:format><dc:type
           rdf:resource="http://purl.org/dc/dcmitype/StillImage" /><dc:title></dc:title></cc:Work></rdf:RDF></metadata><defs
     id="defs2380" /><g
     id="layer2"
     transform="matrix(1.0833331,0,0,1.0833354,-1.1823211,-91.890984)"><g
       id="Your_Design"
       transform="matrix(0.99997401,0,0,0.99997391,0.0296951,0.00145635)"><g
         id="g6183"><rect
           height="1020.4706"
           width="1020.4725"
           y="47.592094"
           x="43.402431"
           id="rect21825-2"
           style="fill:none;stroke:#0000ff;stroke-width:0.02653124" /><circle
           r="7.085"
           cy="1054.1211"
           cx="62.730835"
           id="circle1838"
           style="fill:none;stroke:#0000ff;stroke-width:0.0283" /><circle
           r="7.085"
           cy="983.50366"
           cx="479.33987"
           id="circle1840"
           style="fill:none;stroke:#0000ff;stroke-width:0.0283" /><circle
           r="7.085"
           cy="983.50366"
           cx="564.37091"
           id="circle1842"
           style="fill:none;stroke:#0000ff;stroke-width:0.0283" /><circle
           r="7.085"
           cy="983.50366"
           cx="649.40186"
           id="circle1844"
           style="fill:none;stroke:#0000ff;stroke-width:0.0283" /><circle
           r="7.085"
           cy="983.50366"
           cx="734.43286"
           id="circle1846"
           style="fill:none;stroke:#0000ff;stroke-width:0.0283" /><circle
           r="7.085"
           cy="1054.1211"
           cx="1055.4366"
           id="circle1848"
           style="fill:none;stroke:#0000ff;stroke-width:0.0283" /><circle
           r="7.086"
           cy="59.002686"
           cx="62.731834"
           id="circle2120"
           style="fill:none;stroke:#0000ff;stroke-width:0.0283" /><circle
           r="7.086"
           cy="59.002686"
           cx="1055.4357"
           id="circle2122"
           style="fill:none;stroke:#0000ff;stroke-width:0.0283" /><g
           id="text3477"
           transform="translate(-36.000949,-52.61666)"><path
             d="m 159.455,163.863 c 2.573,0 3.86,-1.584 3.86,-4.753 l 0.316,-0.317 h 1.47 c 0.595,0.211 0.893,0.807 0.893,1.786 v 10.977 c 0,1.19 -0.297,1.786 -0.893,1.786 h -1.383 l -0.375,-0.375 c -0.077,-3.092 -1.373,-4.753 -3.889,-4.983 h -4.178 c -1.786,0 -2.679,-0.683 -2.679,-2.046 0,-1.383 0.893,-2.074 2.679,-2.074 h 4.179 z m -9.767,17.343 c 0,0.691 0.308,1.037 0.922,1.037 h 13.943 c 1.46,-0.135 2.516,-1.258 3.169,-3.37 0.672,-2.113 1.95,-3.169 3.832,-3.169 l -1.901,8.498 c -0.308,1.287 -1.028,1.931 -2.161,1.931 h -31.199 c 0,-1.383 0.95,-2.314 2.852,-2.795 1.902,-0.481 2.833,-1.325 2.795,-2.535 v -28.261 c 0.019,-1.21 -0.922,-2.056 -2.823,-2.535 -1.882,-0.48 -2.823,-1.412 -2.823,-2.795 H 166.6 c 1.978,0 2.967,1.287 2.967,3.86 l 0.403,5.964 c -1.363,0 -2.391,-0.941 -3.082,-2.823 -0.691,-1.901 -1.604,-2.853 -2.737,-2.853 h -13.425 c -0.691,0 -1.037,0.336 -1.037,1.009 v 28.837 z"
             id="path3479"
             style="fill:none;stroke:#0000ff;stroke-width:0.0283"
             inkscape:connector-curvature="0" /></g><g
           id="text3523"
           transform="translate(-6.1324332,-52.61666)"><path
             d="m 563.285,181.12 c -0.02,1.095 0.912,1.911 2.794,2.449 1.883,0.537 2.823,1.498 2.823,2.881 H 549.63 c 0,-1.383 0.932,-2.305 2.794,-2.766 1.883,-0.461 2.823,-1.325 2.823,-2.593 v -32.323 c 0,-0.807 0.385,-1.21 1.152,-1.21 h 5.733 c 0.768,0 1.152,0.403 1.152,1.21 v 32.352 z m -13.396,-29.212 h -2.621 c -1.402,0.097 -2.285,1.134 -2.65,3.111 -0.365,1.959 -1.373,2.938 -3.025,2.938 v -9.276 c 0,-0.749 0.403,-1.123 1.21,-1.123 h 6.741 c 1.883,0 2.823,0.72 2.823,2.16 -10e-4,1.365 -0.826,2.095 -2.478,2.19 z m 26.1,-4.349 c 0.807,0 1.21,0.355 1.21,1.065 v 9.334 c -1.401,0 -2.381,-1.027 -2.938,-3.082 -0.538,-2.056 -1.498,-3.083 -2.881,-3.083 h -2.479 c -1.824,0 -2.736,-0.701 -2.736,-2.103 0,-1.422 0.912,-2.132 2.736,-2.132 h 7.088 z"
             id="path3525"
             style="fill:none;stroke:#0000ff;stroke-width:0.0283"
             inkscape:connector-curvature="0" /></g><g
           transform="translate(281.89634,-52.280129)"
           id="text3537-0"><path
             d="m 726.889,164.087 c 2.573,0 3.86,-1.585 3.86,-4.754 l 0.317,-0.316 h 1.469 c 0.596,0.211 0.893,0.807 0.893,1.786 v 10.976 c 0,1.19 -0.297,1.786 -0.893,1.786 h -1.383 l -0.375,-0.374 c -0.076,-3.093 -1.373,-4.754 -3.889,-4.984 h -4.178 c -1.785,0 -2.679,-0.682 -2.679,-2.045 0,-1.383 0.894,-2.074 2.679,-2.074 h 4.179 z m -17.515,-11.322 c 0.02,-1.21 -0.922,-2.055 -2.823,-2.535 -1.882,-0.48 -2.823,-1.411 -2.823,-2.794 h 30.307 c 1.979,0 2.967,1.286 2.967,3.86 l 0.404,5.963 c -1.364,0 -2.392,-0.941 -3.083,-2.823 -0.691,-1.901 -1.604,-2.852 -2.737,-2.852 h -13.424 c -0.691,0 -1.037,0.336 -1.037,1.008 v 28.405 c 0,1.19 0.94,2.036 2.822,2.535 1.902,0.499 2.853,1.44 2.853,2.823 h -19.101 c 0,-1.383 0.941,-2.324 2.824,-2.823 1.9,-0.499 2.852,-1.345 2.852,-2.535 v -28.232 z"
             id="path3539-0"
             style="fill:none;stroke:#0000ff;stroke-width:0.0283"
             inkscape:connector-curvature="0" /></g><g
           id="text3576"
           transform="translate(-37.476478,-47.078064)"><path
             d="m 151.549,235.274 c 0,1.383 -0.95,2.333 -2.852,2.852 -1.901,0.5 -2.958,1.45 -3.169,2.853 v 20.8 c 0.019,5.724 3.313,8.72 9.881,8.988 7.548,0 11.322,-3.188 11.322,-9.564 v -20.541 c 0,-1.056 -0.96,-1.872 -2.881,-2.448 -1.901,-0.576 -2.853,-1.556 -2.853,-2.938 h 16.19 c 0,1.383 -0.941,2.362 -2.823,2.938 -1.882,0.557 -2.833,1.469 -2.852,2.736 v 20.224 c -0.192,8.682 -5.368,13.281 -15.528,13.8 h -2.103 c -8.662,0 -13.828,-3.592 -15.499,-10.774 -0.384,-1.921 -0.576,-4.59 -0.576,-8.009 v -14.952 c 0,-1.479 -0.951,-2.496 -2.853,-3.054 -1.882,-0.557 -2.823,-1.526 -2.823,-2.909 h 19.419 z"
             id="path3578"
             style="fill:none;stroke:#0000ff;stroke-width:0.0283"
             inkscape:connector-curvature="0" /></g><g
           id="text3611"
           transform="translate(0.51341301,-47.078064)"><path
             d="m 550.886,273.767 c -0.308,0.845 -0.807,1.306 -1.498,1.383 -0.653,0 -1.172,-0.471 -1.556,-1.412 l -13.137,-32.784 c -0.403,-0.96 -1.277,-1.689 -2.621,-2.189 -1.326,-0.499 -1.988,-1.335 -1.988,-2.506 h 16.651 c 0,1.171 -0.711,2.026 -2.132,2.563 -1.421,0.538 -1.979,1.239 -1.671,2.104 l 8.21,21.059 2.219,-5.762 c 0.691,-1.824 1.709,-2.478 3.054,-1.959 1.363,0.519 1.7,1.69 1.009,3.515 z m 36.817,-44.51 -16.997,44.395 c -0.346,0.998 -0.979,1.498 -1.901,1.498 -0.941,0 -1.575,-0.48 -1.901,-1.44 l -12.532,-32.18 c -0.384,-1.21 -1.411,-2.055 -3.082,-2.535 -1.671,-0.499 -2.506,-1.411 -2.506,-2.736 h 17.544 c 0.038,1.286 -0.711,2.18 -2.247,2.679 -1.537,0.48 -2.247,1.249 -2.132,2.305 l 8.038,20.714 13.482,-33.678 c 0.672,-1.767 1.68,-2.391 3.024,-1.872 1.171,0.459 1.575,1.409 1.21,2.85 z"
             id="path3613"
             style="fill:none;stroke:#0000ff;stroke-width:0.0283"
             inkscape:connector-curvature="0" /></g><g
           id="text3679"
           transform="translate(35.853741,-46.564991)"><path
             d="m 974.653,257.911 c -0.038,-0.884 -0.941,-1.604 -2.708,-2.161 -1.748,-0.576 -2.621,-1.526 -2.621,-2.852 h 18.293 c 0,1.306 -0.902,2.275 -2.708,2.909 -1.806,0.634 -2.66,1.421 -2.563,2.362 v 12.157 c 0,1.939 -2.267,3.352 -6.799,4.235 -0.596,0.096 -0.894,-0.173 -0.894,-0.807 z m -3.745,-18.034 c -0.979,-0.403 -2.583,-0.605 -4.811,-0.605 -6.607,0 -10.852,3.649 -12.734,10.947 l -0.287,2.68 v 2.938 c 0,6.895 2.957,11.82 8.873,14.778 1.421,0.749 3.543,1.143 6.366,1.182 2.017,-0.327 3.131,0.153 3.342,1.44 0.192,1.401 -0.691,2.17 -2.65,2.305 -0.672,0.038 -1.345,0.066 -2.017,0.086 -14.712,-0.403 -22.308,-7 -22.787,-19.791 0.441,-13.041 7.912,-19.84 22.412,-20.396 4.36,0.038 7.625,0.835 9.795,2.391 0.154,-1.518 0.846,-2.314 2.074,-2.391 h 1.124 l 2.132,12.704 c -1.44,0.326 -3.016,-1.027 -4.725,-4.062 -1.613,-2.074 -3.648,-3.477 -6.107,-4.206 z"
             id="path3681"
             style="fill:none;stroke:#0000ff;stroke-width:0.0283"
             inkscape:connector-curvature="0" /></g><g
           transform="translate(-359.39843,38.631631)"
           id="text3604-1"><path
             d="m 471.389,235.583 v -0.029 h 22.615 c 0.634,0 0.951,0.395 0.951,1.182 l -27.771,36.76 c -0.403,0.614 -1.018,0.922 -1.844,0.922 h -5.358 c -0.807,0 -1.21,-0.499 -1.21,-1.498 l 24.314,-32.323 v -0.605 h -14.231 c -1.191,0 -2.161,1.009 -2.91,3.025 -0.73,1.997 -1.815,2.996 -3.255,2.996 l 0.432,-6.338 c 0,-2.728 1.046,-4.091 3.14,-4.091 h 5.127 z m 2.852,38.834 c -1.805,0 -2.708,-0.691 -2.708,-2.074 0,-1.383 0.903,-2.074 2.708,-2.074 h 14.087 c 1.114,0 2.026,-1.104 2.737,-3.313 0.73,-2.208 1.873,-3.313 3.428,-3.313 l -0.49,6.914 c 0,2.573 -0.989,3.86 -2.967,3.86 z"
             id="path3606-3"
             style="fill:none;stroke:#0000ff;stroke-width:0.0283"
             inkscape:connector-curvature="0" /></g><g
           transform="translate(162.09357,127.36759)"
           id="text3498-0-8"><path
             d="m 393.924,152.176 c 0,-1.19 -0.941,-2.036 -2.823,-2.535 -1.882,-0.499 -2.823,-1.44 -2.823,-2.823 h 18.984 c 0,1.383 -0.94,2.324 -2.822,2.823 -1.883,0.499 -2.824,1.345 -2.824,2.535 v 28.175 c 0,1.19 0.941,2.036 2.824,2.535 1.882,0.499 2.822,1.44 2.822,2.823 h -18.984 c 0,-1.383 0.941,-2.324 2.823,-2.823 1.882,-0.499 2.823,-1.345 2.823,-2.535 z"
             id="path3500-8-5"
             style="fill:none;stroke:#0000ff;stroke-width:0.0283"
             inkscape:connector-curvature="0" /></g><g
           id="text3811"
           transform="translate(36.51534,-49.471367)"><path
             d="m 968.122,323.656 c 0,1.383 -0.95,2.371 -2.852,2.967 -1.902,0.596 -2.843,1.393 -2.823,2.392 v 29.355 h 12.561 c 1.651,0 2.621,-0.691 2.909,-2.074 1.422,-3.361 2.92,-4.936 4.494,-4.725 l -1.93,9.968 c -0.153,0.672 -0.624,1.009 -1.412,1.009 H 949.08 c 0,-1.383 0.95,-2.324 2.852,-2.823 1.921,-0.5 2.862,-1.354 2.823,-2.564 v -28.117 c 0,-0.96 -0.95,-1.757 -2.852,-2.391 -1.882,-0.634 -2.823,-1.633 -2.823,-2.996 h 19.042 z"
             id="path3813"
             style="fill:none;stroke:#0000ff;stroke-width:0.0283"
             inkscape:connector-curvature="0" /></g><g
           transform="translate(-363.36843,29.566018)"
           id="text3736-1"><path
             d="m 478.673,362.417 c -0.192,0.442 -0.538,0.663 -1.037,0.663 h -0.173 c -0.557,0 -0.941,-0.202 -1.152,-0.605 L 460.38,329.23 c -0.211,-0.902 -1.22,-1.623 -3.025,-2.16 -1.806,-0.558 -2.708,-1.518 -2.708,-2.881 h 18.207 c -0.02,1.363 -0.884,2.295 -2.593,2.794 -1.709,0.5 -2.42,1.027 -2.132,1.585 l 12.993,27.368 c 0.211,0.441 0.221,0.874 0.029,1.296 z M 489.13,328.51 c 0.23,-0.538 -0.519,-1.057 -2.247,-1.556 -1.709,-0.519 -2.564,-1.44 -2.564,-2.766 h 14.606 c 0,1.229 -0.701,2.084 -2.103,2.563 -1.383,0.48 -2.17,0.989 -2.362,1.527 l -9.766,21.174 c -0.788,1.729 -1.844,2.295 -3.169,1.7 -1.306,-0.615 -1.556,-1.786 -0.749,-3.515 z"
             id="path3738-6"
             style="fill:none;stroke:#0000ff;stroke-width:0.0283"
             inkscape:connector-curvature="0" /></g><g
           id="text3893"
           transform="translate(-3.0929859,-59.539905)"><path
             d="m 562.439,412.287 c 0,1.383 -0.951,2.372 -2.853,2.967 -1.901,0.596 -2.843,1.393 -2.823,2.392 v 29.355 h 12.561 c 1.651,0 2.621,-0.691 2.91,-2.074 1.421,-3.36 2.919,-4.936 4.494,-4.725 l -1.931,9.968 c -0.153,0.673 -0.624,1.009 -1.411,1.009 h -29.99 c 0,-1.383 0.951,-2.324 2.852,-2.823 1.921,-0.499 2.862,-1.354 2.824,-2.564 v -28.117 c 0,-0.96 -0.951,-1.757 -2.853,-2.391 -1.882,-0.634 -2.823,-1.633 -2.823,-2.996 h 19.043 z"
             id="path3895"
             style="fill:none;stroke:#0000ff;stroke-width:0.0283"
             inkscape:connector-curvature="0" /></g><g
           id="text3950"
           transform="translate(35.34108,-57.59418)"><path
             d="m 956.67,445.82 c 0,1.19 0.94,2.036 2.822,2.535 1.883,0.499 2.824,1.44 2.824,2.823 h -18.985 c 0,-1.383 0.94,-2.324 2.823,-2.823 1.882,-0.499 2.823,-1.345 2.823,-2.535 v -28.175 c 0,-1.19 -0.941,-2.036 -2.823,-2.535 -1.883,-0.499 -2.823,-1.44 -2.823,-2.823 h 18.985 c 0,1.383 -0.941,2.324 -2.824,2.823 -1.882,0.499 -2.822,1.345 -2.822,2.535 z m 17.025,-11.264 c 0,-0.576 -0.308,-0.864 -0.922,-0.864 h -10.17 c -2.016,0 -3.024,-0.691 -3.024,-2.074 0,-1.401 1.009,-2.103 3.024,-2.103 h 10.17 c 0.614,0 0.922,-0.308 0.922,-0.922 v -10.947 c 0,-1.19 -0.941,-2.036 -2.823,-2.535 -1.882,-0.499 -2.823,-1.44 -2.823,-2.823 h 18.984 c 0,1.383 -0.94,2.324 -2.822,2.823 -1.883,0.499 -2.824,1.345 -2.824,2.535 v 28.175 c 0,1.19 0.941,2.036 2.824,2.535 1.882,0.499 2.822,1.44 2.822,2.823 h -18.984 c 0,-1.383 0.941,-2.324 2.823,-2.823 1.882,-0.499 2.823,-1.345 2.823,-2.535 z"
             id="path3952"
             style="fill:none;stroke:#0000ff;stroke-width:0.0283"
             inkscape:connector-curvature="0" /></g><g
           id="text3957"
           transform="translate(-35.760174,-62.309203)"><path
             d="m 172.392,538.336 c -0.192,0.787 -0.595,1.181 -1.21,1.181 h -1.412 l -24.919,-27.253 h -0.317 v 21.895 c 0,0.941 0.989,1.729 2.967,2.362 1.998,0.634 2.996,1.633 2.996,2.996 h -16.19 c 0,-1.363 0.97,-2.353 2.91,-2.967 1.94,-0.615 2.91,-1.44 2.91,-2.478 v -26.245 c 0,-2.17 -1.334,-3.553 -4.004,-4.148 -2.669,-0.596 -4.004,-1.584 -4.004,-2.967 h 11.552 c 0.769,0 1.402,0.374 1.901,1.123 l 26.158,29.27 c 0.442,0.499 0.663,1.104 0.663,1.815 v 5.416 z m -4.581,-32.237 c 0.039,-1.152 -0.941,-2.017 -2.938,-2.593 -1.997,-0.576 -2.996,-1.536 -2.996,-2.881 h 16.363 c 0,1.383 -0.999,2.362 -2.996,2.938 -1.978,0.557 -2.967,1.383 -2.967,2.478 v 16.306 c -0.019,1.921 -0.768,2.881 -2.247,2.881 -1.479,0 -2.218,-0.96 -2.218,-2.881 v -16.248 z"
             id="path3959"
             style="fill:none;stroke:#0000ff;stroke-width:0.0283"
             inkscape:connector-curvature="0" /></g><g
           transform="translate(245.03659,-61.85144)"
           id="text3971-3"><path
             d="m 312.788,500.384 c 0,1.383 -0.95,2.333 -2.852,2.852 -1.901,0.499 -2.958,1.45 -3.169,2.853 v 20.8 c 0.02,5.723 3.313,8.719 9.881,8.987 7.548,0 11.322,-3.188 11.322,-9.563 v -20.541 c 0,-1.057 -0.961,-1.872 -2.881,-2.448 -1.901,-0.576 -2.853,-1.556 -2.853,-2.938 h 16.19 c 0,1.383 -0.94,2.362 -2.823,2.938 -1.882,0.557 -2.833,1.469 -2.852,2.736 v 20.224 c -0.192,8.681 -5.368,13.281 -15.528,13.8 h -2.103 c -8.662,0 -13.828,-3.592 -15.499,-10.774 -0.385,-1.921 -0.576,-4.591 -0.576,-8.009 v -14.952 c 0,-1.479 -0.951,-2.497 -2.853,-3.054 -1.882,-0.557 -2.823,-1.526 -2.823,-2.909 h 19.419 z"
             id="path3973-4"
             style="fill:none;stroke:#0000ff;stroke-width:0.0283"
             inkscape:connector-curvature="0" /></g><g
           transform="translate(281.89934,-59.871418)"
           id="text4050-8"><path
             d="m 726.886,517.248 c 2.574,0 3.86,-1.585 3.86,-4.754 l 0.317,-0.316 h 1.469 c 0.596,0.211 0.893,0.807 0.893,1.786 v 10.976 c 0,1.19 -0.297,1.786 -0.893,1.786 h -1.383 l -0.374,-0.374 c -0.077,-3.093 -1.374,-4.754 -3.89,-4.984 h -4.177 c -1.786,0 -2.68,-0.682 -2.68,-2.045 0,-1.383 0.894,-2.074 2.68,-2.074 h 4.178 z M 709.37,505.926 c 0.02,-1.21 -0.922,-2.055 -2.823,-2.535 -1.882,-0.48 -2.823,-1.411 -2.823,-2.794 h 30.307 c 1.979,0 2.968,1.286 2.968,3.86 l 0.403,5.963 c -1.364,0 -2.392,-0.941 -3.083,-2.823 -0.691,-1.901 -1.604,-2.852 -2.736,-2.852 h -13.425 c -0.691,0 -1.037,0.336 -1.037,1.008 v 28.405 c 0,1.19 0.94,2.036 2.823,2.535 1.901,0.499 2.852,1.44 2.852,2.823 h -19.1 c 0,-1.383 0.94,-2.324 2.823,-2.823 1.901,-0.499 2.852,-1.345 2.852,-2.535 v -28.232 z"
             id="path4052-2"
             style="fill:none;stroke:#0000ff;stroke-width:0.0283"
             inkscape:connector-curvature="0" /></g><g
           transform="translate(-115.91395,20.649629)"
           id="text3964-4"><path
             d="m 239.367,517.24 c 2.574,0 3.86,-1.585 3.86,-4.754 l 0.317,-0.316 h 1.469 c 0.596,0.211 0.893,0.807 0.893,1.786 v 10.976 c 0,1.19 -0.297,1.786 -0.893,1.786 h -1.383 l -0.375,-0.374 c -0.077,-3.093 -1.373,-4.754 -3.889,-4.984 h -4.177 c -1.786,0 -2.679,-0.682 -2.679,-2.045 0,-1.383 0.893,-2.074 2.679,-2.074 h 4.178 z m -9.766,17.343 c 0,0.691 0.307,1.037 0.922,1.037 h 13.943 c 1.459,-0.135 2.516,-1.259 3.169,-3.371 0.672,-2.112 1.95,-3.169 3.832,-3.169 l -1.901,8.499 c -0.307,1.286 -1.027,1.93 -2.161,1.93 h -31.2 c 0,-1.383 0.951,-2.314 2.852,-2.794 1.901,-0.48 2.833,-1.325 2.794,-2.535 v -28.262 c 0.02,-1.21 -0.922,-2.055 -2.823,-2.535 -1.882,-0.48 -2.823,-1.411 -2.823,-2.794 h 30.307 c 1.979,0 2.967,1.286 2.967,3.86 l 0.403,5.963 c -1.364,0 -2.391,-0.941 -3.083,-2.823 -0.691,-1.901 -1.604,-2.852 -2.737,-2.852 h -13.425 c -0.691,0 -1.037,0.336 -1.037,1.008 v 28.838 z"
             id="path3966-4"
             style="fill:none;stroke:#0000ff;stroke-width:0.0283"
             inkscape:connector-curvature="0" /></g><g
           transform="translate(-1.4804974,108.73983)"
           id="text3893-8-9"><path
             d="m 562.439,412.271 c 0,1.383 -0.951,2.372 -2.853,2.968 -1.901,0.595 -2.843,1.393 -2.823,2.391 v 29.356 h 12.561 c 1.652,0 2.621,-0.691 2.91,-2.074 1.421,-3.361 2.919,-4.937 4.494,-4.725 l -1.931,9.968 c -0.153,0.672 -0.624,1.008 -1.411,1.008 h -29.99 c 0,-1.383 0.951,-2.323 2.852,-2.823 1.921,-0.499 2.862,-1.354 2.824,-2.563 V 417.66 c 0,-0.961 -0.951,-1.758 -2.853,-2.392 -1.882,-0.634 -2.823,-1.632 -2.823,-2.996 h 19.043 z"
             id="path3895-9-9"
             style="fill:none;stroke:#0000ff;stroke-width:0.0283"
             inkscape:connector-curvature="0" /></g><g
           transform="translate(764.53229,-65.188505)"
           id="text4118-6"><path
             d="m 230.863,594.563 c 0,-1.19 -0.94,-2.035 -2.823,-2.535 -1.882,-0.499 -2.823,-1.44 -2.823,-2.823 h 18.985 c 0,1.383 -0.941,2.324 -2.823,2.823 -1.883,0.5 -2.823,1.345 -2.823,2.535 v 28.175 c 0,1.191 0.94,2.036 2.823,2.535 1.882,0.5 2.823,1.44 2.823,2.823 h -18.985 c 0,-1.383 0.941,-2.323 2.823,-2.823 1.883,-0.499 2.823,-1.344 2.823,-2.535 z"
             id="path4120-8"
             style="fill:none;stroke:#0000ff;stroke-width:0.0283"
             inkscape:connector-curvature="0" /></g><g
           id="text4265"
           transform="translate(-32.497979,-66.46315)"><path
             d="m 145.532,711.536 c 0,0.673 0.365,1.009 1.095,1.009 h 4.552 c 8.988,0 13.943,-5.051 14.865,-15.153 0,-9.833 -4.36,-15.086 -13.079,-15.759 h -13.771 c -1.459,-0.019 -3.044,-0.364 -4.753,-1.037 -1.709,-0.691 -2.564,-1.729 -2.564,-3.111 h 20.541 c 7.452,0 13.463,2.171 18.034,6.511 3.092,3.457 4.6,7.827 4.523,13.108 0,7.644 -4.167,13.492 -12.503,17.544 -3.668,1.191 -7.231,1.786 -10.688,1.786 h -17.833 -2.045 c 0,-1.344 0.97,-2.266 2.91,-2.766 1.959,-0.499 2.958,-1.373 2.996,-2.621 v -21.232 c 0,-3.36 1.287,-5.041 3.86,-5.041 2.573,0 3.86,1.681 3.86,5.041 z"
             id="path4267"
             style="fill:none;stroke:#0000ff;stroke-width:0.0283"
             inkscape:connector-curvature="0" /></g><g
           id="text4322"
           transform="translate(-0.02311419,-66.46315)"><path
             d="m 557.309,677.542 c 0,1.383 -0.95,2.334 -2.852,2.853 -1.901,0.499 -2.958,1.45 -3.169,2.852 v 20.8 c 0.019,5.724 3.313,8.72 9.881,8.988 7.548,0 11.322,-3.188 11.322,-9.564 v -20.54 c 0,-1.057 -0.96,-1.873 -2.881,-2.449 -1.901,-0.576 -2.853,-1.556 -2.853,-2.938 h 16.19 c 0,1.383 -0.94,2.362 -2.823,2.938 -1.882,0.558 -2.832,1.47 -2.852,2.737 v 20.224 c -0.192,8.681 -5.368,13.28 -15.528,13.799 h -2.103 c -8.662,0 -13.828,-3.591 -15.499,-10.774 -0.384,-1.92 -0.576,-4.59 -0.576,-8.009 v -14.951 c 0,-1.479 -0.951,-2.497 -2.853,-3.054 -1.882,-0.557 -2.823,-1.527 -2.823,-2.91 h 19.419 z"
             id="path4324"
             style="fill:none;stroke:#0000ff;stroke-width:0.0283"
             inkscape:connector-curvature="0" /></g><g
           id="text4397"
           transform="translate(32.93008,-68.378325)"><path
             d="m 961.733,699.869 c -0.461,-0.441 -1.345,-0.663 -2.65,-0.663 v 11.869 c 0,1.268 0.941,2.132 2.823,2.593 1.882,0.461 2.823,1.383 2.823,2.766 h -18.985 c 0,-1.383 0.941,-2.323 2.824,-2.823 1.9,-0.499 2.842,-1.344 2.822,-2.535 v -21.261 c -0.019,-3.36 1.259,-5.041 3.832,-5.041 2.573,0 3.86,1.681 3.86,5.041 v 5.531 h 2.103 c 6.377,0 9.44,-2.478 9.19,-7.433 0,-3.783 -1.979,-5.848 -5.935,-6.193 h -12.215 c -1.095,0 -2.449,-0.346 -4.063,-1.037 -1.613,-0.711 -2.42,-1.758 -2.42,-3.141 h 17.199 c 10.486,0 15.932,3.457 16.334,10.371 0,4.744 -2.967,8.019 -8.901,9.824 -0.115,0.441 0,0.932 0.346,1.469 l 16.622,23.565 c 1.057,1.402 1.037,2.507 -0.057,3.313 -1.076,0.826 -2.142,0.528 -3.198,-0.894 z"
             id="path4399"
             style="fill:none;stroke:#0000ff;stroke-width:0.0283"
             inkscape:connector-curvature="0" /></g><g
           transform="translate(-275.86943,106.64271)"
           id="text4143-4"><path
             d="m 402.841,595.191 c -2.362,-1.075 -4.917,-1.633 -7.663,-1.671 -3.438,0 -5.157,1.421 -5.157,4.264 0,2.439 4.475,5.676 13.425,9.708 5.128,2.709 7.788,6.031 7.98,9.969 0,6.913 -4.187,10.534 -12.561,10.86 -4.974,0 -8.969,-0.672 -11.984,-2.017 -0.48,1.345 -1.431,2.017 -2.852,2.017 v -13.973 c 1.345,0 2.286,0.836 2.823,2.507 0.538,1.671 1.027,2.823 1.469,3.457 1.709,2.67 5.32,4.004 10.832,4.004 3.418,-0.384 5.128,-1.901 5.128,-4.552 v -0.288 c 0,-2.804 -4.465,-6.126 -13.396,-9.967 -4.936,-2.439 -7.404,-5.676 -7.404,-9.709 0.211,-5.839 3.534,-9.171 9.968,-9.996 4.417,-0.212 8.22,0.403 11.408,1.844 1.364,0.729 1.786,1.671 1.268,2.823 -0.576,1.229 -1.67,1.469 -3.284,0.72 z"
             id="path4145-3"
             style="fill:none;stroke:#0000ff;stroke-width:0.0283"
             inkscape:connector-curvature="0" /></g><g
           id="text1281"
           transform="translate(3.998452,-70.617097)"><path
             d="m 575.706,803.591 c -0.192,0.787 -0.596,1.182 -1.21,1.182 h -1.412 L 548.165,777.52 h -0.317 v 21.895 c 0,0.94 0.989,1.729 2.968,2.362 1.997,0.634 2.996,1.632 2.996,2.996 h -16.19 c 0,-1.364 0.97,-2.353 2.909,-2.968 1.94,-0.614 2.91,-1.44 2.91,-2.478 v -26.244 c 0,-2.171 -1.335,-3.554 -4.005,-4.148 -2.67,-0.596 -4.004,-1.585 -4.004,-2.968 h 11.552 c 0.769,0 1.402,0.375 1.901,1.124 l 26.158,29.27 c 0.441,0.499 0.663,1.104 0.663,1.814 z m -4.581,-32.237 c 0.039,-1.152 -0.941,-2.017 -2.938,-2.593 -1.997,-0.576 -2.996,-1.537 -2.996,-2.881 h 16.363 c 0,1.383 -0.998,2.362 -2.996,2.938 -1.978,0.557 -2.967,1.383 -2.967,2.478 v 16.306 c -0.02,1.92 -0.769,2.881 -2.247,2.881 -1.478,0 -2.219,-0.961 -2.219,-2.881 z"
             id="path1283"
             style="fill:none;stroke:#0000ff;stroke-width:0.0283"
             inkscape:connector-curvature="0" /></g><g
           id="text1338"
           transform="translate(38.65134,-67.001642)"><path
             d="m 968.637,799.442 c -0.02,1.095 0.912,1.911 2.794,2.449 1.883,0.537 2.823,1.498 2.823,2.881 h -19.272 c 0,-1.383 0.932,-2.305 2.794,-2.766 1.883,-0.461 2.823,-1.325 2.823,-2.593 V 767.09 c 0,-0.807 0.384,-1.21 1.152,-1.21 h 5.733 c 0.768,0 1.152,0.403 1.152,1.21 v 32.352 z M 955.24,770.23 h -2.621 c -1.402,0.096 -2.285,1.133 -2.65,3.111 -0.365,1.959 -1.373,2.938 -3.025,2.938 v -9.276 c 0,-0.749 0.403,-1.124 1.21,-1.124 h 6.741 c 1.883,0 2.823,0.721 2.823,2.161 0,1.364 -0.825,2.095 -2.478,2.19 z m 26.101,-4.35 c 0.807,0 1.21,0.355 1.21,1.066 v 9.334 c -1.401,0 -2.381,-1.027 -2.938,-3.083 -0.538,-2.055 -1.498,-3.082 -2.881,-3.082 h -2.479 c -1.824,0 -2.736,-0.701 -2.736,-2.104 0,-1.421 0.912,-2.132 2.736,-2.132 h 7.088 z"
             id="path1340"
             style="fill:none;stroke:#0000ff;stroke-width:0.0283"
             inkscape:connector-curvature="0" /></g><g
           transform="translate(-275.86943,194.39102)"
           id="text4143-4-03"><path
             d="m 402.841,595.183 c -2.362,-1.075 -4.917,-1.633 -7.663,-1.671 -3.438,0 -5.157,1.421 -5.157,4.264 0,2.439 4.475,5.676 13.425,9.709 5.128,2.708 7.788,6.03 7.98,9.968 0,6.914 -4.187,10.534 -12.561,10.86 -4.974,0 -8.969,-0.672 -11.984,-2.017 -0.48,1.345 -1.431,2.017 -2.852,2.017 v -13.972 c 1.344,0 2.286,0.835 2.823,2.506 0.537,1.671 1.027,2.823 1.469,3.457 1.709,2.67 5.32,4.005 10.832,4.005 3.418,-0.385 5.128,-1.901 5.128,-4.552 v -0.288 c 0,-2.805 -4.465,-6.127 -13.396,-9.968 -4.936,-2.439 -7.404,-5.676 -7.404,-9.709 0.211,-5.839 3.534,-9.171 9.968,-9.996 4.417,-0.212 8.22,0.403 11.408,1.844 1.364,0.729 1.786,1.671 1.268,2.823 -0.576,1.229 -1.67,1.469 -3.284,0.72 z"
             id="path4145-3-8"
             style="fill:none;stroke:#0000ff;stroke-width:0.0283"
             inkscape:connector-curvature="0" /></g><g
           transform="translate(3.5234424,17.900781)"
           id="text1281-7"><path
             d="m 575.706,803.583 c -0.191,0.788 -0.595,1.182 -1.21,1.182 h -1.411 l -24.92,-27.253 h -0.316 v 21.895 c 0,0.94 0.988,1.729 2.967,2.362 1.998,0.634 2.996,1.632 2.996,2.996 h -16.19 c 0,-1.364 0.97,-2.353 2.91,-2.968 1.939,-0.614 2.909,-1.44 2.909,-2.478 v -26.244 c 0,-2.171 -1.334,-3.554 -4.004,-4.148 -2.67,-0.596 -4.005,-1.585 -4.005,-2.968 h 11.553 c 0.769,0 1.401,0.375 1.901,1.124 l 26.158,29.27 c 0.441,0.499 0.662,1.104 0.662,1.814 z m -4.581,-32.237 c 0.038,-1.152 -0.941,-2.017 -2.938,-2.593 -1.997,-0.576 -2.996,-1.537 -2.996,-2.881 h 16.363 c 0,1.383 -0.999,2.362 -2.996,2.938 -1.979,0.557 -2.968,1.383 -2.968,2.478 v 16.306 c -0.02,1.92 -0.768,2.881 -2.247,2.881 -1.479,0 -2.218,-0.961 -2.218,-2.881 z"
             id="path1283-0"
             style="fill:none;stroke:#0000ff;stroke-width:0.0283"
             inkscape:connector-curvature="0" /></g><g
           id="text1459"
           transform="translate(39.30934,-66.268582)"><path
             d="m 969.476,870.6 c 2.573,0 3.86,-1.584 3.86,-4.754 l 0.317,-0.316 h 1.469 c 0.596,0.211 0.894,0.807 0.894,1.786 v 10.977 c 0,1.19 -0.298,1.786 -0.894,1.786 h -1.383 l -0.374,-0.375 c -0.077,-3.092 -1.373,-4.753 -3.89,-4.983 h -4.177 c -1.786,0 -2.68,-0.683 -2.68,-2.046 0,-1.383 0.894,-2.074 2.68,-2.074 h 4.178 z M 951.96,859.277 c 0.02,-1.209 -0.922,-2.055 -2.823,-2.535 -1.882,-0.479 -2.823,-1.411 -2.823,-2.794 h 30.307 c 1.979,0 2.968,1.287 2.968,3.86 l 0.403,5.964 c -1.364,0 -2.392,-0.941 -3.083,-2.823 -0.691,-1.901 -1.604,-2.853 -2.736,-2.853 h -13.425 c -0.691,0 -1.037,0.336 -1.037,1.009 v 28.405 c 0,1.19 0.94,2.035 2.823,2.535 1.901,0.499 2.852,1.44 2.852,2.823 h -19.1 c 0,-1.383 0.94,-2.324 2.823,-2.823 1.901,-0.5 2.852,-1.345 2.852,-2.535 v -28.233 z"
             id="path1461"
             style="fill:none;stroke:#0000ff;stroke-width:0.0283"
             inkscape:connector-curvature="0" /></g><g
           transform="translate(-523.23443,19.718947)"
           id="text1431-3"><path
             d="m 635.225,854.268 v -0.029 h 22.615 c 0.634,0 0.951,0.394 0.951,1.182 l -27.771,36.76 c -0.403,0.614 -1.018,0.922 -1.844,0.922 h -5.358 c -0.807,0 -1.21,-0.5 -1.21,-1.498 l 24.314,-32.323 v -0.605 H 632.69 c -1.19,0 -2.161,1.009 -2.91,3.025 -0.73,1.997 -1.815,2.996 -3.255,2.996 l 0.432,-6.338 c 0,-2.728 1.047,-4.091 3.14,-4.091 h 5.128 z m 2.852,38.834 c -1.805,0 -2.708,-0.691 -2.708,-2.074 0,-1.383 0.903,-2.074 2.708,-2.074 h 14.087 c 1.114,0 2.026,-1.104 2.737,-3.313 0.73,-2.209 1.873,-3.313 3.428,-3.313 l -0.49,6.914 c 0,2.573 -0.989,3.86 -2.967,3.86 z"
             id="path1433-5"
             style="fill:none;stroke:#0000ff;stroke-width:0.0283"
             inkscape:connector-curvature="0" /></g><g
           id="text1545"
           transform="translate(3.396132,-69.232448)"><path
             d="m 555.619,942.798 c 0,1.383 -0.95,2.333 -2.852,2.853 -1.901,0.499 -2.958,1.449 -3.169,2.852 v 20.8 c 0.019,5.724 3.313,8.72 9.881,8.988 7.548,0 11.322,-3.188 11.322,-9.564 v -20.541 c 0,-1.056 -0.961,-1.872 -2.881,-2.448 -1.901,-0.576 -2.853,-1.556 -2.853,-2.938 h 16.19 c 0,1.383 -0.94,2.362 -2.823,2.938 -1.882,0.557 -2.832,1.469 -2.852,2.736 v 20.224 c -0.192,8.682 -5.368,13.281 -15.528,13.8 h -2.103 c -8.662,0 -13.828,-3.592 -15.499,-10.774 -0.384,-1.921 -0.576,-4.59 -0.576,-8.009 v -14.952 c 0,-1.479 -0.951,-2.496 -2.853,-3.054 -1.882,-0.557 -2.823,-1.526 -2.823,-2.909 h 19.419 z"
             id="path1547"
             style="fill:none;stroke:#0000ff;stroke-width:0.0283"
             inkscape:connector-curvature="0" /></g><g
           id="text1602"
           transform="translate(39.61034,-69.232448)"><path
             d="m 961.975,964.4 c -0.461,-0.441 -1.344,-0.662 -2.65,-0.662 v 11.869 c 0,1.268 0.941,2.131 2.823,2.593 1.882,0.461 2.823,1.383 2.823,2.766 h -18.984 c 0,-1.383 0.94,-2.324 2.822,-2.823 1.902,-0.5 2.843,-1.345 2.824,-2.535 v -21.262 c -0.02,-3.36 1.258,-5.041 3.831,-5.041 2.573,0 3.86,1.681 3.86,5.041 v 5.531 h 2.104 c 6.376,0 9.439,-2.478 9.189,-7.432 0,-3.784 -1.979,-5.849 -5.935,-6.194 h -12.215 c -1.095,0 -2.448,-0.346 -4.062,-1.037 -1.613,-0.711 -2.42,-1.757 -2.42,-3.14 h 17.198 c 10.486,0 15.931,3.457 16.335,10.371 0,4.743 -2.968,8.018 -8.902,9.823 -0.115,0.441 0,0.932 0.346,1.47 l 16.623,23.564 c 1.056,1.402 1.037,2.507 -0.059,3.313 -1.075,0.826 -2.141,0.528 -3.197,-0.894 z"
             id="path1604"
             style="fill:none;stroke:#0000ff;stroke-width:0.0283"
             inkscape:connector-curvature="0" /></g></g></g></g></svg>